# xmcd
#
# Track frame offsets:
#	150
#	13688
#	28714
#	42403
#	56661
#	70005
#	85947
#	99309
#	113206
#	125488
#	140200
#	151979
#	166087
#	181990
#	196619
#	209247
#
# Disc length: 2967 seconds
#
# Revision: 0
# Processed by: cddbd v1.5.1PL0 Copyright (c) Steve Scherf et al.
# Submitted via: dBpowerAMP V4.0
#
DISCID=dd0b9510
DTITLE=Tommy Dorsey and his Orchestra - featuring Frank Sinatra
DYEAR=1935
DGENRE=Blues
TTITLE0=Dolores
TTITLE1=Oh ! Look at me now
TTITLE2=Well get it
TTITLE3=Violets for your furs
TTITLE4=How about you
TTITLE5=I guess I'll have a dream the rest
TTITLE6=Take me
TTITLE7=Hawaiian war chant
TTITLE8=There are such things
TTITLE9=Daybreak
TTITLE10=Street of dreams
TTITLE11=Light a candle in the chapel
TTITLE12=Just as though you were here
TTITLE13=On the sunny side of the street
TTITLE14=Chicago
TTITLE15=Opus No. 1
EXTD=
EXTT0=
EXTT1=
EXTT2=
EXTT3=
EXTT4=
EXTT5=
EXTT6=
EXTT7=
EXTT8=
EXTT9=
EXTT10=
EXTT11=
EXTT12=
EXTT13=
EXTT14=
EXTT15=
PLAYORDER=
